<?xml version="1.0" encoding="UTF-8"?><svg id="Layer_2" xmlns="http://www.w3.org/2000/svg" viewBox="0 0 28.35 7.2"><defs><style>.cls-1{fill:#fff;}</style></defs><g id="Layer_1-2"><g><rect width="28.35" height="7.2"/><g><path class="cls-1" d="M5.39,3.15h1.23V1.91h1.01v1.23h1.23v.93h-1.23v1.24h-1.01v-1.24h-1.23v-.93Z"/><path class="cls-1" d="M10.98,2.03h-.76V.99h1.99V6.33h-1.23V2.03Z"/><path class="cls-1" d="M17.03,6.33h-4.08l1.6-1.74c.28-.31,.7-.83,.87-1.09,.12-.19,.32-.54,.32-.9,0-.2-.08-.41-.21-.53-.1-.1-.28-.15-.49-.15-.23,0-.38,.08-.49,.19-.14,.16-.22,.45-.22,.66h-1.23c.04-.46,.22-.99,.55-1.34,.26-.27,.71-.55,1.47-.55s1.19,.32,1.38,.5c.29,.29,.5,.73,.5,1.28,0,.47-.14,.82-.4,1.18-.23,.32-.51,.59-.86,.92l-.56,.54h1.84v1.04Z"/><path class="cls-1" d="M18.92,.99l1.35,3.41,1.35-3.41h1.33l-2.26,5.33h-.83L17.59,.99h1.33Z"/></g></g></g></svg>