<?xml version="1.0" encoding="UTF-8"?><svg id="Layer_2" xmlns="http://www.w3.org/2000/svg" viewBox="0 0 18.73 5.45"><defs><style>.cls-1{fill:#231f20;}</style></defs><g id="Layer_1-2"><g><path class="cls-1" d="M0,2.27H1.23V1.04h1.01v1.23h1.23v.93h-1.23v1.24H1.23v-1.24H0v-.93Z"/><path class="cls-1" d="M8.01,5.45H3.93l1.6-1.74c.28-.31,.7-.83,.87-1.09,.12-.19,.32-.54,.32-.9,0-.2-.08-.41-.21-.53-.1-.1-.28-.15-.49-.15-.23,0-.38,.08-.49,.19-.14,.16-.22,.45-.22,.66h-1.23c.04-.46,.22-.99,.55-1.34,.26-.27,.71-.55,1.47-.55s1.19,.32,1.38,.5c.29,.29,.5,.73,.5,1.28,0,.47-.14,.82-.4,1.18-.23,.32-.51,.59-.86,.92l-.56,.54h1.84v1.04Z"/><path class="cls-1" d="M12.48,3.47h.64v.98h-.64v1.01h-1.18v-1.01h-2.61v-.7L11.04,.12h1.44V3.47Zm-1.18,0V1.4l-1.31,2.07h1.31Z"/><path class="cls-1" d="M14.7,.12l1.35,3.41L17.4,.12h1.33l-2.26,5.33h-.83L13.37,.12h1.33Z"/></g></g></svg>