<?xml version="1.0" encoding="UTF-8"?><svg id="Layer_2" xmlns="http://www.w3.org/2000/svg" viewBox="0 0 28.35 7.2"><defs><style>.cls-1{fill:#fff;}</style></defs><g id="Layer_1-2"><g><rect width="28.35" height="7.2"/><g><path class="cls-1" d="M5.05,3.08h1.23V1.85h1.01v1.23h1.23v.93h-1.23v1.24h-1.01v-1.24h-1.23v-.93Z"/><path class="cls-1" d="M9.15,2.53c.05-.45,.25-.92,.53-1.21,.39-.41,.91-.5,1.35-.5,.66,0,1.13,.2,1.4,.47,.22,.22,.41,.57,.41,1.09,0,.26-.05,.5-.22,.73-.11,.16-.25,.26-.4,.34,.22,.08,.46,.23,.61,.43,.16,.22,.25,.55,.25,.84,0,.41-.16,.87-.54,1.22-.46,.42-.98,.46-1.41,.46-.52,0-1.09-.08-1.56-.55-.3-.31-.54-.78-.59-1.32h1.23c.02,.21,.11,.46,.26,.6,.13,.13,.34,.22,.59,.22,.21,0,.41-.06,.54-.18,.13-.12,.22-.33,.22-.54s-.1-.41-.23-.51c-.19-.15-.47-.17-.66-.17h-.1v-.85h.07c.07,0,.36,0,.54-.15,.11-.1,.2-.26,.2-.48,0-.18-.07-.34-.18-.43-.1-.09-.26-.16-.46-.16s-.38,.07-.48,.18c-.11,.12-.18,.33-.19,.5h-1.18Z"/><path class="cls-1" d="M14.94,.93l1.35,3.41,1.35-3.41h1.33l-2.26,5.33h-.83L13.62,.93h1.33Z"/><path class="cls-1" d="M19.37,2.53c.05-.45,.25-.92,.53-1.21,.39-.41,.91-.5,1.35-.5,.66,0,1.13,.2,1.4,.47,.22,.22,.41,.57,.41,1.09,0,.26-.05,.5-.22,.73-.11,.16-.25,.26-.4,.34,.22,.08,.46,.23,.61,.43,.16,.22,.25,.55,.25,.84,0,.41-.16,.87-.54,1.22-.46,.42-.98,.46-1.41,.46-.52,0-1.09-.08-1.56-.55-.3-.31-.54-.78-.59-1.32h1.23c.02,.21,.11,.46,.26,.6,.13,.13,.34,.22,.59,.22,.21,0,.41-.06,.54-.18,.13-.12,.22-.33,.22-.54s-.1-.41-.23-.51c-.19-.15-.47-.17-.66-.17h-.1v-.85h.07c.07,0,.36,0,.54-.15,.11-.1,.2-.26,.2-.48,0-.18-.07-.34-.18-.43-.1-.09-.26-.16-.46-.16s-.38,.07-.48,.18c-.11,.12-.18,.33-.19,.5h-1.18Z"/></g></g></g></svg>