<?xml version="1.0" encoding="UTF-8"?><svg id="Layer_2" xmlns="http://www.w3.org/2000/svg" viewBox="0 0 13.93 5.45"><defs><style>.cls-1{fill:#231f20;}</style></defs><g id="Layer_1-2"><g><path class="cls-1" d="M0,2.15H1.23V.92h1.01v1.23h1.23v.93h-1.23v1.24H1.23v-1.24H0v-.93Z"/><path class="cls-1" d="M7.68,1.04h-1.8l-.14,.71c.14-.02,.3-.04,.44-.04,.6,0,1.06,.22,1.36,.52,.24,.24,.49,.66,.49,1.29,0,.69-.3,1.13-.54,1.38-.49,.48-1.07,.56-1.61,.56-.5,0-1.1-.06-1.77-.58l.28-1.14c.14,.16,.34,.34,.51,.44,.22,.14,.49,.23,.81,.23,.28,0,.57-.06,.76-.22,.17-.13,.31-.36,.31-.67s-.14-.51-.27-.62c-.06-.06-.33-.28-.89-.28-.45,0-.82,.14-1.09,.28l.54-2.89h2.62V1.04Z"/><path class="cls-1" d="M9.9,0l1.35,3.41,1.35-3.41h1.33l-2.26,5.33h-.83L8.57,0h1.33Z"/></g></g></svg>