<?xml version="1.0" encoding="UTF-8"?><svg id="Layer_2" xmlns="http://www.w3.org/2000/svg" viewBox="0 0 28.35 7.2"><defs><style>.cls-1{fill:#fff;}</style></defs><g id="Layer_1-2"><g><rect width="28.35" height="7.2"/><g><path class="cls-1" d="M3.53,3.09h1.23V1.85h1.01v1.23h1.23v.93h-1.23v1.24h-1.01v-1.24h-1.23v-.93Z"/><path class="cls-1" d="M9.48,.93c.29,0,.94,.02,1.36,.41,.34,.33,.38,.78,.38,1.01,0,.21-.03,.45-.18,.68-.14,.22-.32,.34-.45,.39,.26,.04,.54,.17,.74,.36,.18,.18,.34,.48,.34,.95,0,.54-.21,.87-.42,1.08-.44,.42-1.08,.46-1.41,.46h-2.01V.93h1.63Zm-.42,2.17h.2c.17,0,.45-.02,.62-.15,.11-.08,.22-.24,.22-.47s-.11-.38-.21-.45c-.18-.14-.42-.14-.64-.14h-.19v1.21Zm0,2.21h.3c.31,0,.69,0,.91-.22,.11-.1,.18-.26,.18-.45,0-.22-.09-.36-.17-.43-.22-.2-.63-.2-.88-.2h-.34v1.3Z"/><path class="cls-1" d="M15.74,5.26h-2.01l-.41,1.01h-1.28L14.19,.93h1.13l2.1,5.33h-1.28l-.4-1.01Zm-.34-.94l-.66-1.79-.66,1.79h1.32Z"/><path class="cls-1" d="M19.56,1.97V6.27h-1.23V1.97h-1.16V.93h3.55V1.97h-1.16Z"/><path class="cls-1" d="M23.65,1.97V6.27h-1.23V1.97h-1.16V.93h3.55V1.97h-1.16Z"/></g></g></g></svg>