<?xml version="1.0" encoding="UTF-8"?><svg id="Layer_2" xmlns="http://www.w3.org/2000/svg" viewBox="0 0 19.08 5.57"><defs><style>.cls-1{fill:#231f20;}</style></defs><g id="Layer_1-2"><g><path class="cls-1" d="M0,2.27H1.23V1.04h1.01v1.23h1.23v.93h-1.23v1.24H1.23v-1.24H0v-.93Z"/><path class="cls-1" d="M5.1,.12l1.35,3.41L7.8,.12h1.33l-2.26,5.33h-.83L3.77,.12h1.33Z"/><path class="cls-1" d="M11.43,.12c.7,0,1.45,.1,2.1,.74,.47,.46,.77,1.08,.77,1.91s-.29,1.45-.73,1.89c-.74,.74-1.66,.8-2.1,.8h-1.73V.12h1.69Zm-.46,4.29h.33c.26,0,.82-.02,1.22-.36,.29-.24,.52-.7,.52-1.29s-.23-.94-.44-1.15c-.4-.4-.92-.46-1.3-.46h-.33v3.25Z"/><path class="cls-1" d="M19.08,5.29c-.47,.24-.86,.29-1.18,.29-.98,0-1.65-.34-2.09-.78-.48-.46-.83-1.17-.83-2.02s.35-1.54,.83-2.01c.47-.46,1.16-.77,1.99-.77,.35,0,.76,.07,1.28,.3V1.72c-.27-.29-.68-.57-1.25-.57-.45,0-.81,.14-1.09,.42-.3,.29-.5,.72-.5,1.23,0,.55,.22,.94,.46,1.18,.11,.11,.5,.45,1.15,.45,.32,0,.75-.09,1.22-.55v1.42Z"/></g></g></svg>