<?xml version="1.0" encoding="UTF-8"?><svg id="Layer_2" xmlns="http://www.w3.org/2000/svg" viewBox="0 0 21.46 5.57"><defs><style>.cls-1{fill:#231f20;}</style></defs><g id="Layer_1-2"><g><path class="cls-1" d="M4.1,5.29c-.47,.24-.86,.29-1.18,.29-.98,0-1.65-.34-2.09-.78-.48-.46-.83-1.17-.83-2.02S.35,1.23,.83,.77c.47-.46,1.16-.77,1.99-.77,.35,0,.76,.07,1.28,.3V1.72c-.27-.29-.68-.57-1.25-.57-.45,0-.81,.14-1.09,.42-.3,.29-.5,.72-.5,1.23,0,.55,.22,.94,.46,1.18,.11,.11,.5,.45,1.15,.45,.32,0,.75-.09,1.22-.55v1.42Z"/><path class="cls-1" d="M8.22,4.45h-2.01l-.41,1.01h-1.28L6.67,.12h1.13l2.1,5.33h-1.28l-.4-1.01Zm-.34-.94l-.66-1.79-.66,1.79h1.32Z"/><path class="cls-1" d="M10.5,5.45V.12h1.07l2.89,3.44V.12h1.23V5.45h-1.07l-2.89-3.45v3.45h-1.23Z"/><path class="cls-1" d="M18.1,2.15h2.13V.12h1.23V5.45h-1.23V3.19h-2.13v2.26h-1.23V.12h1.23V2.15Z"/></g></g></svg>