<?xml version="1.0" encoding="UTF-8"?><svg id="Layer_2" xmlns="http://www.w3.org/2000/svg" viewBox="0 0 17.31 5.57"><defs><style>.cls-1{fill:#231f20;}</style></defs><g id="Layer_1-2"><g><path class="cls-1" d="M2.81,2.54h2.65v.06c0,.65-.23,1.63-.82,2.25-.59,.62-1.27,.73-1.9,.73s-1.33-.1-1.95-.74c-.31-.32-.78-.97-.78-2.03C0,1.93,.32,1.23,.77,.78,1.42,.1,2.23,0,2.86,0c.44,0,1,.07,1.5,.4,.36,.24,.67,.62,.86,.95l-1.11,.6c-.1-.21-.26-.42-.47-.58-.24-.18-.51-.26-.82-.26-.49,0-.85,.16-1.1,.43-.3,.31-.46,.77-.46,1.26,0,.61,.22,1,.45,1.22,.31,.32,.67,.42,1.08,.42,.53,0,.81-.18,.93-.29,.04-.03,.28-.24,.38-.63h-1.29v-.99Z"/><path class="cls-1" d="M6.38,5.45V.12h1.07l2.89,3.44V.12h1.23V5.45h-1.07L7.61,2v3.45h-1.23Z"/><path class="cls-1" d="M14.44,.12c.7,0,1.45,.1,2.1,.74,.47,.46,.77,1.08,.77,1.91s-.29,1.45-.73,1.89c-.74,.74-1.66,.8-2.1,.8h-1.73V.12h1.69Zm-.46,4.29h.33c.26,0,.82-.02,1.22-.36,.29-.24,.52-.7,.52-1.29s-.23-.94-.44-1.15c-.4-.4-.92-.46-1.3-.46h-.33v3.25Z"/></g></g></svg>