<?xml version="1.0" encoding="UTF-8"?><svg id="Layer_2" xmlns="http://www.w3.org/2000/svg" viewBox="0 0 28.35 7.2"><defs><style>.cls-1{fill:#fff;}</style></defs><g id="Layer_1-2"><g><rect width="28.35" height="7.2"/><g><path class="cls-1" d="M9.9,.94c.68,0,1.1,.22,1.36,.46,.22,.22,.46,.6,.46,1.19,0,.34-.07,.75-.42,1.09-.18,.18-.45,.34-.74,.41l1.64,2.18h-1.5l-1.44-2.1v2.1h-1.23V.94h1.87Zm-.64,2.42h.28c.22,0,.53-.02,.74-.23,.09-.09,.2-.26,.2-.52,0-.3-.14-.46-.25-.54-.2-.15-.52-.17-.68-.17h-.29v1.46Z"/><path class="cls-1" d="M15.64,2.24c-.4-.36-.74-.38-.9-.38-.17,0-.38,.02-.52,.18-.08,.08-.14,.2-.14,.34,0,.13,.04,.22,.12,.3,.13,.12,.31,.17,.67,.3l.4,.15c.23,.09,.52,.21,.73,.41,.31,.3,.39,.68,.39,.99,0,.55-.19,1.03-.47,1.32-.47,.5-1.16,.54-1.51,.54-.38,0-.72-.06-1.06-.22-.27-.14-.58-.38-.78-.58l.64-.88c.14,.14,.35,.32,.5,.41,.21,.13,.42,.19,.67,.19,.16,0,.38-.03,.56-.18,.1-.09,.19-.23,.19-.43,0-.18-.07-.29-.18-.38-.14-.12-.47-.24-.62-.3l-.44-.15c-.25-.09-.54-.2-.74-.42-.28-.29-.32-.67-.32-.93,0-.47,.14-.87,.46-1.2,.38-.38,.82-.49,1.32-.49,.37,0,.96,.06,1.58,.53l-.55,.9Z"/><path class="cls-1" d="M19.16,1.97V6.27h-1.23V1.97h-1.16V.94h3.55V1.97h-1.16Z"/></g></g></g></svg>