<?xml version="1.0" encoding="UTF-8"?><svg id="Layer_2" xmlns="http://www.w3.org/2000/svg" viewBox="0 0 28.35 7.2"><defs><style>.cls-1{fill:#fff;}</style></defs><g id="Layer_1-2"><g><rect width="28.35" height="7.2"/><g><path class="cls-1" d="M11.2,.94c.68,0,1.1,.22,1.36,.46,.22,.22,.46,.6,.46,1.19,0,.34-.07,.75-.42,1.09-.18,.18-.45,.34-.74,.41l1.64,2.18h-1.5l-1.44-2.1v2.1h-1.23V.94h1.87Zm-.64,2.42h.28c.22,0,.53-.02,.74-.23,.09-.09,.2-.26,.2-.52,0-.3-.14-.46-.25-.54-.2-.15-.52-.17-.68-.17h-.29v1.46Z"/><path class="cls-1" d="M15.64,3.44l-1.66-2.5h1.48l.88,1.52,.88-1.52h1.48l-1.65,2.5,1.96,2.83h-1.48l-1.18-1.85-1.18,1.85h-1.48l1.96-2.83Z"/></g></g></g></svg>