<?xml version="1.0" encoding="UTF-8"?><svg id="Layer_2" xmlns="http://www.w3.org/2000/svg" viewBox="0 0 9.68 5.33"><defs><style>.cls-1{fill:#231f20;}</style></defs><g id="Layer_1-2"><g><path class="cls-1" d="M1.87,0c.68,0,1.1,.22,1.36,.46,.22,.22,.46,.6,.46,1.19,0,.34-.07,.75-.42,1.09-.18,.18-.45,.34-.74,.41l1.64,2.18h-1.5L1.23,3.23v2.1H0V0H1.87Zm-.64,2.42h.28c.22,0,.53-.02,.74-.23,.09-.09,.2-.26,.2-.52,0-.3-.14-.46-.25-.54-.2-.15-.52-.17-.68-.17h-.29v1.46Z"/><path class="cls-1" d="M6.31,2.5L4.66,0h1.48l.88,1.52,.88-1.52h1.48l-1.65,2.5,1.96,2.83h-1.48l-1.18-1.85-1.18,1.85h-1.48l1.96-2.83Z"/></g></g></svg>