<?xml version="1.0" encoding="UTF-8"?><svg id="Layer_2" xmlns="http://www.w3.org/2000/svg" viewBox="0 0 14.92 5.57"><defs><style>.cls-1{fill:#231f20;}</style></defs><g id="Layer_1-2"><g><path class="cls-1" d="M3.06,1.42c-.4-.36-.74-.38-.9-.38-.17,0-.38,.02-.52,.18-.08,.08-.14,.2-.14,.34,0,.13,.04,.22,.12,.3,.13,.12,.31,.17,.67,.3l.4,.15c.23,.09,.52,.21,.73,.41,.31,.3,.39,.68,.39,.99,0,.55-.19,1.03-.47,1.32-.47,.5-1.16,.54-1.51,.54-.38,0-.72-.06-1.06-.22-.27-.14-.58-.38-.78-.58l.64-.88c.14,.14,.35,.32,.5,.41,.21,.13,.42,.19,.67,.19,.16,0,.38-.03,.56-.18,.1-.09,.19-.23,.19-.43,0-.18-.07-.29-.18-.38-.14-.12-.47-.24-.62-.3l-.44-.15c-.25-.09-.54-.2-.74-.42-.28-.3-.32-.67-.32-.93C.25,1.22,.39,.82,.71,.49c.38-.38,.82-.49,1.32-.49,.37,0,.96,.06,1.58,.53l-.55,.9Z"/><path class="cls-1" d="M6.4,.12c.7,0,1.45,.1,2.1,.74,.47,.46,.77,1.08,.77,1.91s-.29,1.45-.73,1.89c-.74,.74-1.66,.8-2.1,.8h-1.73V.12h1.69Zm-.46,4.29h.33c.26,0,.82-.02,1.21-.36,.29-.24,.52-.7,.52-1.29s-.23-.94-.44-1.15c-.4-.4-.92-.46-1.29-.46h-.33v3.25Z"/><path class="cls-1" d="M13.25,4.45h-2.01l-.41,1.01h-1.28L11.69,.12h1.13l2.1,5.33h-1.28l-.4-1.01Zm-.34-.94l-.66-1.79-.66,1.79h1.32Z"/></g></g></svg>