<?xml version="1.0" encoding="UTF-8"?><svg id="Layer_2" xmlns="http://www.w3.org/2000/svg" viewBox="0 0 28.35 7.2"><defs><style>.cls-1{fill:#fff;}</style></defs><g id="Layer_1-2"><g><rect width="28.35" height="7.2"/><g><path class="cls-1" d="M4.21,2.24c-.4-.36-.74-.38-.9-.38-.17,0-.38,.02-.52,.18-.08,.08-.14,.2-.14,.34,0,.13,.04,.22,.12,.3,.13,.12,.31,.17,.67,.3l.4,.15c.23,.09,.52,.21,.73,.41,.31,.3,.39,.68,.39,.99,0,.55-.19,1.03-.47,1.32-.47,.5-1.16,.54-1.51,.54-.38,0-.72-.06-1.06-.22-.27-.14-.58-.38-.78-.58l.64-.88c.14,.14,.35,.32,.5,.41,.21,.13,.42,.19,.67,.19,.16,0,.38-.03,.56-.18,.1-.09,.19-.23,.19-.43,0-.18-.07-.29-.18-.38-.14-.12-.47-.24-.62-.3l-.44-.15c-.25-.09-.54-.2-.74-.42-.28-.29-.32-.67-.32-.93,0-.47,.14-.87,.46-1.2,.38-.38,.82-.49,1.32-.49,.37,0,.96,.06,1.58,.53l-.55,.9Z"/><path class="cls-1" d="M6.42,.94l1.14,3.53,1.14-3.53h.85l1.14,3.53,1.14-3.53h1.28l-1.81,5.33h-1.04l-1.12-3.24-1.12,3.24h-1.04L5.14,.94h1.28Z"/><path class="cls-1" d="M15.4,.94c.7,0,1.45,.1,2.1,.74,.47,.46,.77,1.08,.77,1.91s-.29,1.45-.73,1.89c-.74,.74-1.66,.8-2.1,.8h-1.73V.94h1.69Zm-.46,4.29h.33c.26,0,.82-.02,1.22-.36,.29-.24,.52-.7,.52-1.29s-.23-.94-.44-1.15c-.4-.4-.92-.46-1.3-.46h-.33v3.25Z"/><path class="cls-1" d="M20.44,.94V6.27h-1.23V.94h1.23Z"/><path class="cls-1" d="M26.36,1.59c.5,.49,.83,1.19,.83,2.02,0,.71-.26,1.44-.83,2-.5,.48-1.17,.78-2.06,.78-1,0-1.68-.4-2.08-.78-.51-.48-.83-1.2-.83-1.98s.34-1.54,.82-2.02c.36-.36,1.02-.78,2.09-.78,.83,0,1.53,.26,2.06,.78Zm-3.24,.82c-.23,.22-.47,.62-.47,1.21,0,.49,.16,.88,.49,1.2,.34,.33,.73,.44,1.14,.44,.54,0,.93-.2,1.18-.46,.21-.2,.46-.58,.46-1.19,0-.55-.22-.96-.46-1.2-.26-.26-.69-.46-1.18-.46s-.88,.17-1.17,.46Z"/></g></g></g></svg>