<?xml version="1.0" encoding="UTF-8"?><svg id="Layer_2" xmlns="http://www.w3.org/2000/svg" viewBox="0 0 18.12 5.57"><defs><style>.cls-1{fill:#231f20;}</style></defs><g id="Layer_1-2"><g><path class="cls-1" d="M3.06,1.42c-.4-.36-.74-.38-.9-.38-.17,0-.38,.02-.52,.18-.08,.08-.14,.2-.14,.34,0,.13,.04,.22,.12,.3,.13,.12,.31,.17,.67,.3l.4,.15c.23,.09,.52,.21,.73,.41,.31,.3,.39,.68,.39,.99,0,.55-.19,1.03-.47,1.32-.47,.5-1.16,.54-1.51,.54-.38,0-.72-.06-1.06-.22-.27-.14-.58-.38-.78-.58l.64-.88c.14,.14,.35,.32,.5,.41,.21,.13,.42,.19,.67,.19,.16,0,.38-.03,.56-.18,.1-.09,.19-.23,.19-.43,0-.18-.07-.29-.18-.38-.14-.12-.47-.24-.62-.3l-.44-.15c-.25-.09-.54-.2-.74-.42-.28-.3-.32-.67-.32-.93C.25,1.22,.39,.82,.71,.49c.38-.38,.82-.49,1.32-.49,.37,0,.96,.06,1.58,.53l-.55,.9Z"/><path class="cls-1" d="M5.27,.12l1.14,3.53L7.54,.12h.85l1.14,3.53L10.66,.12h1.28l-1.81,5.33h-1.04l-1.12-3.24-1.12,3.24h-1.04L3.99,.12h1.28Z"/><path class="cls-1" d="M17.29,.78c.5,.49,.83,1.19,.83,2.01,0,.71-.26,1.44-.83,2-.5,.48-1.17,.78-2.06,.78-1,0-1.68-.4-2.08-.78-.51-.48-.83-1.2-.83-1.98s.34-1.54,.82-2.02c.36-.36,1.02-.78,2.09-.78,.83,0,1.53,.26,2.06,.78Zm-3.24,.82c-.23,.22-.47,.62-.47,1.21,0,.49,.16,.88,.49,1.2,.34,.33,.73,.44,1.14,.44,.54,0,.93-.2,1.18-.46,.21-.2,.46-.58,.46-1.19,0-.55-.22-.96-.46-1.2-.26-.26-.69-.46-1.18-.46s-.88,.17-1.17,.46Z"/></g></g></svg>