<?xml version="1.0" encoding="UTF-8"?><svg id="Layer_2" xmlns="http://www.w3.org/2000/svg" viewBox="0 0 15.24 5.57"><defs><style>.cls-1{fill:#231f20;}</style></defs><g id="Layer_1-2"><g><path class="cls-1" d="M2.39,1.16V5.45H1.16V1.16H0V.12H3.55V1.16h-1.16Z"/><path class="cls-1" d="M5.89,.12c.7,0,1.45,.1,2.1,.74,.47,.46,.77,1.08,.77,1.91s-.29,1.45-.73,1.89c-.74,.74-1.66,.8-2.1,.8h-1.73V.12h1.69Zm-.46,4.29h.33c.26,0,.82-.02,1.22-.36,.29-.24,.52-.7,.52-1.29s-.23-.94-.44-1.15c-.4-.4-.92-.46-1.3-.46h-.33v3.25Z"/><path class="cls-1" d="M14.4,.78c.5,.49,.83,1.19,.83,2.02,0,.71-.26,1.44-.83,2-.5,.48-1.17,.78-2.06,.78-1,0-1.68-.4-2.08-.78-.51-.48-.83-1.2-.83-1.98s.34-1.54,.82-2.02c.36-.36,1.02-.78,2.09-.78,.83,0,1.53,.26,2.06,.78Zm-3.24,.82c-.23,.22-.47,.62-.47,1.21,0,.49,.16,.88,.49,1.2,.34,.33,.73,.44,1.14,.44,.54,0,.93-.2,1.18-.46,.21-.2,.46-.58,.46-1.19,0-.55-.22-.96-.46-1.2-.26-.26-.69-.46-1.18-.46s-.88,.17-1.17,.46Z"/></g></g></svg>