<?xml version="1.0" encoding="UTF-8"?><svg id="Layer_2" xmlns="http://www.w3.org/2000/svg" viewBox="0 0 19.92 5.57"><defs><style>.cls-1{fill:#231f20;}</style></defs><g id="Layer_1-2"><g><path class="cls-1" d="M1.33,.12l1.35,3.41L4.03,.12h1.33L3.09,5.45h-.83L0,.12H1.33Z"/><path class="cls-1" d="M7.61,.12c.29,0,.94,.02,1.36,.41,.34,.33,.38,.78,.38,1.01,0,.21-.03,.45-.18,.68-.14,.22-.32,.34-.45,.39,.26,.04,.54,.17,.74,.36,.18,.18,.34,.48,.34,.95,0,.54-.21,.87-.42,1.08-.44,.42-1.08,.46-1.41,.46h-2.01V.12h1.63Zm-.42,2.17h.2c.17,0,.45-.02,.62-.15,.11-.08,.22-.24,.22-.47s-.11-.38-.21-.45c-.18-.14-.42-.14-.64-.14h-.19v1.21Zm0,2.21h.3c.31,0,.69,0,.91-.22,.11-.1,.18-.26,.18-.45,0-.22-.09-.36-.17-.43-.22-.2-.63-.2-.88-.2h-.34v1.3Z"/><path class="cls-1" d="M15.24,3.28c0,.51-.06,1.14-.59,1.69-.51,.53-1.1,.61-1.66,.61s-1.15-.08-1.66-.61c-.53-.54-.59-1.18-.59-1.69V.12h1.23V3.25c0,.23,.02,.62,.28,.9,.22,.23,.51,.28,.74,.28s.53-.05,.74-.28c.26-.27,.28-.66,.28-.9V.12h1.23V3.28Z"/><path class="cls-1" d="M19.16,1.42c-.4-.36-.74-.38-.9-.38-.17,0-.38,.02-.52,.18-.08,.08-.14,.2-.14,.34,0,.13,.04,.22,.12,.3,.13,.12,.31,.17,.67,.3l.4,.15c.23,.09,.52,.21,.73,.41,.31,.3,.39,.68,.39,.99,0,.55-.19,1.03-.47,1.32-.47,.5-1.16,.54-1.51,.54-.38,0-.72-.06-1.06-.22-.27-.14-.58-.38-.78-.58l.64-.88c.14,.14,.35,.32,.5,.41,.21,.13,.42,.19,.67,.19,.16,0,.38-.03,.56-.18,.1-.09,.19-.23,.19-.43,0-.18-.07-.29-.18-.38-.14-.12-.47-.24-.62-.3l-.44-.15c-.25-.09-.54-.2-.74-.42-.28-.3-.32-.67-.32-.93,0-.47,.14-.87,.46-1.2,.38-.38,.82-.49,1.32-.49,.37,0,.96,.06,1.58,.53l-.55,.9Z"/></g></g></svg>