<?xml version="1.0" encoding="UTF-8"?><svg id="Layer_2" xmlns="http://www.w3.org/2000/svg" viewBox="0 0 28.35 7.2"><defs><style>.cls-1{fill:#fff;}</style></defs><g id="Layer_1-2"><g><rect width="28.35" height="7.2"/><g><path class="cls-1" d="M8.24,.94l1.35,3.41,1.35-3.41h1.33l-2.26,5.33h-.83L6.92,.94h1.33Z"/><path class="cls-1" d="M16.67,6.1c-.47,.24-.86,.29-1.18,.29-.98,0-1.65-.34-2.09-.78-.48-.46-.83-1.17-.83-2.02s.35-1.54,.83-2.01c.47-.46,1.16-.77,1.99-.77,.35,0,.76,.07,1.28,.3v1.42c-.27-.29-.68-.57-1.25-.57-.45,0-.81,.14-1.09,.42-.3,.29-.5,.72-.5,1.23,0,.55,.22,.94,.46,1.18,.11,.11,.5,.45,1.15,.45,.32,0,.75-.09,1.22-.55v1.42Z"/><path class="cls-1" d="M21.43,6.1c-.47,.24-.86,.29-1.18,.29-.98,0-1.65-.34-2.09-.78-.48-.46-.83-1.17-.83-2.02s.35-1.54,.83-2.01c.47-.46,1.16-.77,1.99-.77,.35,0,.76,.07,1.28,.3v1.42c-.27-.29-.68-.57-1.25-.57-.45,0-.81,.14-1.09,.42-.3,.29-.5,.72-.5,1.23,0,.55,.22,.94,.46,1.18,.11,.11,.5,.45,1.15,.45,.32,0,.75-.09,1.22-.55v1.42Z"/></g></g></g></svg>