<?xml version="1.0" encoding="UTF-8"?><svg id="Layer_2" xmlns="http://www.w3.org/2000/svg" viewBox="0 0 16.01 5.33"><defs><style>.cls-1{fill:#231f20;}</style></defs><g id="Layer_1-2"><g><path class="cls-1" d="M1.33,0l1.35,3.41L4.03,0h1.33L3.09,5.33h-.83L0,0H1.33Z"/><path class="cls-1" d="M7.66,0c.7,0,1.45,.1,2.1,.74,.47,.46,.77,1.08,.77,1.91s-.29,1.45-.73,1.89c-.74,.74-1.66,.8-2.1,.8h-1.73V0h1.69Zm-.46,4.29h.33c.26,0,.82-.02,1.21-.36,.29-.24,.52-.7,.52-1.29s-.23-.94-.44-1.15c-.4-.4-.92-.46-1.29-.46h-.33v3.25Z"/><path class="cls-1" d="M13.14,0c.7,0,1.45,.1,2.1,.74,.47,.46,.77,1.08,.77,1.91s-.29,1.45-.73,1.89c-.74,.74-1.66,.8-2.1,.8h-1.73V0h1.69Zm-.46,4.29h.33c.26,0,.82-.02,1.22-.36,.29-.24,.52-.7,.52-1.29s-.23-.94-.44-1.15c-.4-.4-.92-.46-1.3-.46h-.33v3.25Z"/></g></g></svg>